<svg width="39" height="53" viewBox="0 0 39 53" fill="none" xmlns="http://www.w3.org/2000/svg">
<path fill-rule="evenodd" clip-rule="evenodd" d="M38.4515 18.6809C38.4515 24.8105 35.2194 30.2261 30.2793 33.4856V52.1797H23.2353L19.3829 48.5356L15.5304 52.1797H8.48665V33.4856C3.54659 30.2261 0.314415 24.8105 0.314415 18.6809C0.314415 8.71888 8.85171 0.643066 19.383 0.643066C29.9143 0.643066 38.4515 8.71888 38.4515 18.6809ZM33.0034 18.6809C33.0034 25.7966 26.9053 31.5651 19.383 31.5651C11.8606 31.5651 5.76257 25.7966 5.76257 18.6809C5.76257 11.5652 11.8606 5.79673 19.383 5.79673C26.9053 5.79673 33.0034 11.5652 33.0034 18.6809ZM13.9348 46.4007L19.3829 41.247L24.8311 46.4009V35.9717C23.1049 36.4577 21.2761 36.7187 19.383 36.7187C17.4898 36.7187 15.6611 36.4577 13.9348 35.9717V46.4007Z" fill="white"/>
</svg>
