<svg width="20" height="25" viewBox="0 0 20 25" fill="none" xmlns="http://www.w3.org/2000/svg">
<path fill-rule="evenodd" clip-rule="evenodd" d="M14.7467 10.3023C14.7467 12.757 12.757 14.7467 10.3023 14.7467C7.84776 14.7467 5.85791 12.757 5.85791 10.3023C5.85791 7.84775 7.84776 5.85791 10.3023 5.85791C12.757 5.85791 14.7467 7.84775 14.7467 10.3023ZM12.5245 10.3023C12.5245 11.5296 11.5296 12.5245 10.3023 12.5245C9.07505 12.5245 8.08012 11.5296 8.08012 10.3023C8.08012 9.07504 9.07505 8.08012 10.3023 8.08012C11.5296 8.08012 12.5245 9.07504 12.5245 10.3023Z" fill="#D64B58"/>
<path fill-rule="evenodd" clip-rule="evenodd" d="M3.10462 17.2425C-0.895283 13.4343 -1.05068 7.10451 2.75752 3.10462C6.56573 -0.895281 12.8954 -1.05068 16.8954 2.75752C20.8953 6.56573 21.0507 12.8955 17.2425 16.8954L10.3471 24.1378L3.10462 17.2425ZM15.6331 15.363L10.2699 20.996L4.63692 15.633C1.52588 12.671 1.40502 7.74796 4.36696 4.63692C7.32889 1.52589 12.252 1.40502 15.3631 4.36696C18.474 7.32889 18.5949 12.2521 15.6331 15.363Z" fill="#D64B58"/>
</svg>
