<svg width="20" height="16" viewBox="0 0 20 16" fill="none" xmlns="http://www.w3.org/2000/svg">
<path fill-rule="evenodd" clip-rule="evenodd" d="M0.0108507 1.11111C0.0108507 0.497466 0.508312 0 1.12197 0H18.8889C19.5026 0 20 0.497466 20 1.11111V13.6936C20 14.9209 19.0051 15.9158 17.7778 15.9158H2.22222C0.994922 15.9158 0 14.9209 0 13.6936V1.47135C0 1.41844 0.0036984 1.3664 0.0108507 1.31545V1.11111ZM2.22222 3.58195V13.6936H17.7778V3.58233L12.3572 9.0029C11.0555 10.3047 8.94491 10.3047 7.64317 9.0029L2.22222 3.58195ZM3.96924 2.18628H16.0311L10.7859 7.43154C10.3519 7.86546 9.64843 7.86546 9.21451 7.43154L3.96924 2.18628Z" fill="#D64B58"/>
</svg>
