<svg width="18" height="22" viewBox="0 0 18 22" fill="none" xmlns="http://www.w3.org/2000/svg">
<path fill-rule="evenodd" clip-rule="evenodd" d="M13.2721 9.27197C13.2721 11.4811 11.4813 13.2719 9.27214 13.2719C7.06301 13.2719 5.27214 11.4811 5.27214 9.27197C5.27214 7.06283 7.06301 5.27197 9.27214 5.27197C11.4813 5.27197 13.2721 7.06283 13.2721 9.27197ZM11.2721 9.27197C11.2721 10.3765 10.3767 11.2719 9.27214 11.2719C8.16758 11.2719 7.27214 10.3765 7.27214 9.27197C7.27214 8.1674 8.16758 7.27197 9.27214 7.27197C10.3767 7.27197 11.2721 8.1674 11.2721 9.27197Z" fill="#D64B58"/>
<path fill-rule="evenodd" clip-rule="evenodd" d="M2.79417 15.5183C-0.805757 12.0909 -0.945617 6.39409 2.48178 2.79417C5.90918 -0.805756 11.6059 -0.945616 15.2059 2.48178C18.8058 5.90918 18.9457 11.606 15.5183 15.2059L9.3124 21.7241L2.79417 15.5183ZM14.0698 13.8268L9.24298 18.8965L4.17324 14.0698C1.3733 11.404 1.26452 6.97319 3.93028 4.17325C6.59603 1.37331 11.0268 1.26453 13.8268 3.93028C16.6267 6.59603 16.7355 11.0269 14.0698 13.8268Z" fill="#D64B58"/>
</svg>
