<svg width="144" height="52" viewBox="0 0 144 52" fill="none" xmlns="http://www.w3.org/2000/svg">
<path d="M5.59044 51.2916H2.37151V31.4346H13.5767V34.1782H5.59044V40.3852H13.0742V43.1423H5.59044V51.2916ZM27.4304 51.2916L26.9822 49.3223H26.8192C26.3755 50.0194 25.7417 50.5671 24.9177 50.9655C24.1028 51.364 23.1702 51.5632 22.1198 51.5632C20.2998 51.5632 18.9416 51.1103 18.0452 50.2051C17.1488 49.2994 16.7006 47.9279 16.7006 46.0895V36.2698H19.9195V45.5328C19.9195 46.6827 20.155 47.5474 20.6258 48.1271C21.0966 48.6973 21.8346 48.9824 22.8397 48.9824C24.1798 48.9824 25.1622 48.5844 25.787 47.7876C26.4208 46.9817 26.7377 45.6367 26.7377 43.7534V36.2698H29.9431V51.2916H27.4304ZM19.0638 32.2902C19.0638 31.7289 19.2133 31.3259 19.512 31.0815C19.8199 30.8279 20.1912 30.7012 20.6258 30.7012C21.1057 30.7012 21.486 30.8415 21.7667 31.1222C22.0564 31.4029 22.2013 31.7923 22.2013 32.2902C22.2013 32.7702 22.0564 33.155 21.7667 33.4447C21.4769 33.7345 21.0966 33.8794 20.6258 33.8794C20.1912 33.8794 19.8199 33.7481 19.512 33.4855C19.2133 33.2229 19.0638 32.8245 19.0638 32.2902ZM24.4016 32.2902C24.4016 31.7289 24.551 31.3259 24.8498 31.0815C25.1577 30.8279 25.5289 30.7012 25.9635 30.7012C26.4434 30.7012 26.8283 30.8415 27.118 31.1222C27.4078 31.4029 27.5526 31.7923 27.5526 32.2902C27.5526 32.7792 27.4033 33.1686 27.1044 33.4583C26.8056 33.739 26.4253 33.8794 25.9635 33.8794C25.5289 33.8794 25.1577 33.7481 24.8498 33.4855C24.551 33.2229 24.4016 32.8245 24.4016 32.2902ZM42.1128 35.9982C42.7554 35.9982 43.2852 36.0434 43.7016 36.134L43.3895 39.1085C42.9366 38.9998 42.4658 38.9455 41.977 38.9455C40.6999 38.9455 39.6633 39.362 38.8665 40.195C38.0787 41.028 37.6848 42.1102 37.6848 43.4413V51.2916H34.4931V36.2698H36.9922L37.4132 38.9183H37.5762C38.0742 38.0219 38.7216 37.3111 39.5185 36.7859C40.3243 36.2607 41.1891 35.9982 42.1128 35.9982ZM56.5911 47.0132C56.5911 48.4801 56.0568 49.6075 54.9884 50.3953C53.9199 51.1737 52.3896 51.5632 50.3975 51.5632C48.3968 51.5632 46.7892 51.2601 45.5759 50.653V47.896C47.3418 48.7108 48.985 49.1186 50.5063 49.1186C52.471 49.1186 53.4536 48.5255 53.4536 47.3392C53.4536 46.9588 53.3452 46.6418 53.1275 46.3886C52.9103 46.135 52.5528 45.8723 52.0546 45.6007C51.5568 45.3291 50.8638 45.0211 49.9766 44.6771C48.2471 44.007 47.0747 43.337 46.4591 42.6669C45.852 41.9969 45.5489 41.1277 45.5489 40.0592C45.5489 38.7734 46.0651 37.7774 47.0972 37.0711C48.1387 36.3558 49.5511 35.9982 51.3346 35.9982C53.1006 35.9982 54.7711 36.3558 56.3464 37.0711L55.3144 39.4752C53.6937 38.8051 52.3307 38.4701 51.2262 38.4701C49.5421 38.4701 48.6999 38.95 48.6999 39.9098C48.6999 40.3806 48.9171 40.7791 49.3519 41.105C49.7953 41.4312 50.7554 41.8791 52.2313 42.4497C53.4716 42.9296 54.3727 43.3689 54.934 43.7669C55.4956 44.1653 55.912 44.6272 56.1836 45.1524C56.4552 45.6686 56.5911 46.2888 56.5911 47.0132ZM65.6505 48.9824C66.4289 48.9824 67.2078 48.8605 67.9862 48.6159V51.0199C67.6332 51.1737 67.1759 51.3006 66.6147 51.4004C66.0624 51.5088 65.4873 51.5632 64.8897 51.5632C61.8655 51.5632 60.3532 49.9695 60.3532 46.7825V38.6874H58.3026V37.2749L60.5029 36.1068L61.5894 32.9286H63.5586V36.2698H67.8369V38.6874H63.5586V46.7281C63.5586 47.4975 63.7488 48.0682 64.1292 48.4392C64.5186 48.8016 65.0255 48.9824 65.6505 48.9824ZM94.227 51.2916H90.9672V42.3409H81.8129V51.2916H78.567V31.4346H81.8129V39.5567H90.9672V31.4346H94.227V51.2916ZM108.515 51.2916L107.877 49.2H107.768C107.044 50.1143 106.315 50.7393 105.582 51.0743C104.848 51.4004 103.907 51.5632 102.756 51.5632C101.28 51.5632 100.126 51.1647 99.2932 50.3679C98.4689 49.5711 98.057 48.4437 98.057 46.9862C98.057 45.4375 98.6322 44.2696 99.782 43.4818C100.932 42.6939 102.684 42.264 105.038 42.1916L107.632 42.1102V41.3089C107.632 40.3489 107.406 39.6336 106.953 39.1628C106.51 38.6829 105.817 38.4429 104.875 38.4429C104.106 38.4429 103.368 38.5561 102.661 38.7825C101.955 39.0088 101.276 39.276 100.624 39.5838L99.5918 37.302C100.407 36.8765 101.299 36.555 102.267 36.3377C103.237 36.1114 104.151 35.9982 105.011 35.9982C106.922 35.9982 108.361 36.4147 109.33 37.2477C110.308 38.0807 110.797 39.3891 110.797 41.1729V51.2916H108.515ZM103.762 49.1186C104.921 49.1186 105.849 48.7971 106.546 48.1541C107.252 47.502 107.605 46.5923 107.605 45.424V44.1203L105.677 44.2017C104.174 44.2561 103.078 44.5098 102.39 44.9622C101.711 45.406 101.371 46.0895 101.371 47.0132C101.371 47.6832 101.57 48.204 101.969 48.575C102.367 48.9374 102.965 49.1186 103.762 49.1186ZM125.846 51.2916L125.398 49.3223H125.235C124.791 50.0194 124.157 50.5671 123.333 50.9655C122.518 51.364 121.586 51.5632 120.535 51.5632C118.715 51.5632 117.357 51.1103 116.461 50.2051C115.564 49.2994 115.116 47.9279 115.116 46.0895V36.2698H118.335V45.5328C118.335 46.6827 118.571 47.5474 119.041 48.1271C119.512 48.6973 120.25 48.9824 121.255 48.9824C122.595 48.9824 123.578 48.5844 124.202 47.7876C124.837 46.9817 125.153 45.6367 125.153 43.7534V36.2698H128.359V51.2916H125.846ZM143 47.0132C143 48.4801 142.466 49.6075 141.397 50.3953C140.329 51.1737 138.799 51.5632 136.807 51.5632C134.806 51.5632 133.199 51.2601 131.985 50.653V47.896C133.751 48.7108 135.394 49.1186 136.915 49.1186C138.88 49.1186 139.863 48.5255 139.863 47.3392C139.863 46.9588 139.754 46.6418 139.537 46.3886C139.319 46.135 138.962 45.8723 138.464 45.6007C137.966 45.3291 137.273 45.0211 136.386 44.6771C134.656 44.007 133.484 43.337 132.868 42.6669C132.261 41.9969 131.958 41.1277 131.958 40.0592C131.958 38.7734 132.474 37.7774 133.506 37.0711C134.548 36.3558 135.96 35.9982 137.744 35.9982C139.509 35.9982 141.18 36.3558 142.756 37.0711L141.723 39.4752C140.103 38.8051 138.74 38.4701 137.635 38.4701C135.951 38.4701 135.109 38.95 135.109 39.9098C135.109 40.3806 135.326 40.7791 135.761 41.105C136.205 41.4312 137.164 41.8791 138.64 42.4497C139.881 42.9296 140.782 43.3689 141.343 43.7669C141.905 44.1653 142.321 44.6272 142.593 45.1524C142.864 45.6686 143 46.2888 143 47.0132Z" fill="white"/>
<path d="M2 24.7028L15.7035 16.5216V5.06795H25.3164V10.7948L38.8154 2.61359L61.7227 15.7035M61.7227 15.7035L47.6102 23.8847M61.7227 15.7035L72.1537 9.5676L81.9712 15.2944M81.9712 15.2944L96.6973 23.8847M81.9712 15.2944L104.879 2L119.4 10.5903V4.45436H128.399V15.2944L142.103 23.8847" stroke="#D64B58" stroke-width="3" stroke-linecap="round" stroke-linejoin="round"/>
</svg>
