<svg width="18" height="18" viewBox="0 0 18 18" fill="none" xmlns="http://www.w3.org/2000/svg">
<path d="M18 9C18 7.81809 17.7672 6.64782 17.3149 5.55579C16.8626 4.46396 16.1997 3.47168 15.364 2.63606C14.5283 1.80022 13.5361 1.1373 12.4441 0.685107C11.3522 0.23269 10.1819 0 9 0V1.8C9.94554 1.8 10.8818 1.98633 11.7553 2.348C12.6289 2.70989 13.4226 3.24031 14.0912 3.90893C14.7597 4.57735 15.2901 5.37122 15.6519 6.24463C16.0138 7.11826 16.2 8.05451 16.2 9H18Z" fill="#D64B58"/>
<path d="M0 7.1998V2.6998C0 2.20278 0.402951 1.7998 0.9 1.7998H5.4C5.89705 1.7998 6.3 2.20278 6.3 2.6998V6.2998C6.3 6.79683 5.89705 7.1998 5.4 7.1998H3.6C3.6 11.1762 6.82356 14.3998 10.8 14.3998V12.5998C10.8 12.1028 11.2029 11.6998 11.7 11.6998H15.3C15.7971 11.6998 16.2 12.1028 16.2 12.5998V17.0998C16.2 17.5968 15.7971 17.9998 15.3 17.9998H10.8C4.83533 17.9998 0 13.1645 0 7.1998Z" fill="#D64B58"/>
<path d="M13.989 6.93357C14.2603 7.58879 14.4 8.29104 14.4 9.0001H12.78C12.78 8.50374 12.6823 8.0122 12.4923 7.55364C12.3023 7.09485 12.0239 6.67825 11.6728 6.32734C11.3218 5.97622 10.9052 5.69783 10.4466 5.50776C9.98793 5.31792 9.49635 5.22014 9 5.22014V3.6001C9.70911 3.6001 10.4113 3.73984 11.0665 4.01121C11.7216 4.28257 12.317 4.68028 12.8183 5.18169C13.3198 5.6831 13.7176 6.27834 13.989 6.93357Z" fill="#D64B58"/>
</svg>
