<svg width="14" height="14" viewBox="0 0 14 14" fill="none" xmlns="http://www.w3.org/2000/svg">
<path fill-rule="evenodd" clip-rule="evenodd" d="M0 2.33333C0 1.04467 1.04467 0 2.33333 0H11.6667C12.9554 0 14 1.04467 14 2.33333V11.6667C14 12.9554 12.9554 14 11.6667 14H2.33333C1.04467 14 0 12.9554 0 11.6667V2.33333ZM2.33333 1.55556H11.6667C12.0962 1.55556 12.4444 1.90378 12.4444 2.33333V7.2081C12.2156 7.07575 11.95 7 11.6667 7H8.55556C7.69645 7 7 7.69645 7 8.55556V11.6667C7 11.95 7.07575 12.2156 7.2081 12.4444H2.33333C1.90378 12.4444 1.55556 12.0962 1.55556 11.6667V2.33333C1.55556 1.90378 1.90378 1.55556 2.33333 1.55556Z" fill="#D64B58"/>
</svg>
