<svg width="17" height="16" viewBox="0 0 17 16" fill="none" xmlns="http://www.w3.org/2000/svg">
<path d="M1.03448 6.72412C0.4822 6.72412 0.0344849 7.17184 0.0344849 7.72412C0.0344848 8.27641 0.4822 8.72412 1.03448 8.72412L1.03448 6.72412ZM16.2243 8.43123C16.6149 8.0407 16.6149 7.40754 16.2244 7.01702L9.86039 0.653054C9.46987 0.26253 8.8367 0.26253 8.44618 0.653054C8.05565 1.04358 8.05565 1.67674 8.44618 2.06727L14.103 7.72412L8.44618 13.381C8.05565 13.7715 8.05565 14.4047 8.44617 14.7952C8.8367 15.1857 9.46986 15.1857 9.86039 14.7952L16.2243 8.43123ZM1.03448 8.72412L15.5172 8.72412L15.5172 6.72412L1.03448 6.72412L1.03448 8.72412Z" fill="white"/>
</svg>
