<svg width="14" height="18" viewBox="0 0 14 18" fill="none" xmlns="http://www.w3.org/2000/svg">
<path fill-rule="evenodd" clip-rule="evenodd" d="M2.33333 17.4612C1.04467 17.4612 0 16.4165 0 15.1279V7.35007C0 7.32371 0.00131159 7.29765 0.0038734 7.27196H0C0 6.82399 0.177956 6.39436 0.494722 6.07759L5.35008 1.22224C6.26131 0.311012 7.73869 0.311012 8.6499 1.22224L13.5053 6.07761C13.822 6.39437 14 6.82399 14 7.27196H13.9961C13.9987 7.29765 14 7.32371 14 7.35007V15.1279C14 16.4165 12.9554 17.4612 11.6667 17.4612H2.33333ZM7.54997 2.32218L12.4444 7.21666V15.1279C12.4444 15.5574 12.0962 15.9057 11.6667 15.9057H9.33333V12.0168C9.33333 10.7281 8.2887 9.68343 7 9.68343C5.71134 9.68343 4.66667 10.7281 4.66667 12.0168V15.9057H2.33333C1.90378 15.9057 1.55556 15.5574 1.55556 15.1279V7.21671L6.45003 2.32218C6.75376 2.01844 7.24623 2.01844 7.54997 2.32218Z" fill="#D64B58"/>
</svg>
