<svg width="15" height="14" viewBox="0 0 15 14" fill="none" xmlns="http://www.w3.org/2000/svg">
<path d="M0 0.777773C0 0.348225 0.354445 0 0.791667 0H7.125C7.56224 0 7.91667 0.348225 7.91667 0.777773C7.91667 1.20732 7.56224 1.55555 7.125 1.55555H0.791667C0.354445 1.55555 0 1.20732 0 0.777773Z" fill="#D64B58" fill-opacity="0.5"/>
<path d="M0 6.99994C0 6.57038 0.354445 6.22217 0.791667 6.22217H7.125C7.56224 6.22217 7.91667 6.57038 7.91667 6.99994C7.91667 7.42951 7.56224 7.77771 7.125 7.77771H0.791667C0.354445 7.77771 0 7.42951 0 6.99994Z" fill="#D64B58" fill-opacity="0.5"/>
<path d="M0 10.111C0 9.68146 0.354445 9.33325 0.791667 9.33325H7.125C7.56224 9.33325 7.91667 9.68146 7.91667 10.111C7.91667 10.5406 7.56224 10.8888 7.125 10.8888H0.791667C0.354445 10.8888 0 10.5406 0 10.111Z" fill="#D64B58" fill-opacity="0.5"/>
<path d="M0 13.2221C0 12.7925 0.354445 12.4443 0.791667 12.4443H7.125C7.56224 12.4443 7.91667 12.7925 7.91667 13.2221C7.91667 13.6517 7.56224 13.9999 7.125 13.9999H0.791667C0.354445 13.9999 0 13.6517 0 13.2221Z" fill="#D64B58" fill-opacity="0.5"/>
<path fill-rule="evenodd" clip-rule="evenodd" d="M9.63514 4.66651C9.96115 5.57278 10.8409 6.22206 11.875 6.22206C13.1867 6.22206 14.25 5.17739 14.25 3.88874C14.25 2.60009 13.1867 1.55542 11.875 1.55542C10.8409 1.55542 9.96115 2.20471 9.63514 3.11097H0.791667C0.354445 3.11097 0 3.45919 0 3.88874C0 4.31829 0.354445 4.66651 0.791667 4.66651H9.63514ZM12.6667 3.88874C12.6667 4.31829 12.3122 4.66651 11.875 4.66651C11.4378 4.66651 11.0833 4.31829 11.0833 3.88874C11.0833 3.45919 11.4378 3.11097 11.875 3.11097C12.3122 3.11097 12.6667 3.45919 12.6667 3.88874Z" fill="#D64B58"/>
</svg>
