<svg width="144" height="52" viewBox="0 0 144 52" fill="none" xmlns="http://www.w3.org/2000/svg">
<path d="M5.59044 51.2917H2.37151V31.4347H13.5767V34.1783H5.59044V40.3853H13.0742V43.1424H5.59044V51.2917ZM27.4304 51.2917L26.9822 49.3225H26.8192C26.3755 50.0195 25.7417 50.5673 24.9177 50.9657C24.1028 51.3641 23.1702 51.5633 22.1198 51.5633C20.2998 51.5633 18.9416 51.1105 18.0452 50.2052C17.1488 49.2996 16.7006 47.928 16.7006 46.0897V36.2699H19.9195V45.533C19.9195 46.6828 20.155 47.5476 20.6258 48.1272C21.0966 48.6975 21.8346 48.9826 22.8397 48.9826C24.1798 48.9826 25.1622 48.5846 25.787 47.7877C26.4208 46.9819 26.7377 45.6369 26.7377 43.7536V36.2699H29.9431V51.2917H27.4304ZM19.0638 32.2904C19.0638 31.729 19.2133 31.3261 19.512 31.0816C19.8199 30.8281 20.1912 30.7013 20.6258 30.7013C21.1057 30.7013 21.486 30.8417 21.7667 31.1224C22.0564 31.4031 22.2013 31.7924 22.2013 32.2904C22.2013 32.7703 22.0564 33.1552 21.7667 33.4449C21.4769 33.7346 21.0966 33.8795 20.6258 33.8795C20.1912 33.8795 19.8199 33.7482 19.512 33.4856C19.2133 33.2231 19.0638 32.8246 19.0638 32.2904ZM24.4016 32.2904C24.4016 31.729 24.551 31.3261 24.8498 31.0816C25.1577 30.8281 25.5289 30.7013 25.9635 30.7013C26.4434 30.7013 26.8283 30.8417 27.118 31.1224C27.4078 31.4031 27.5526 31.7924 27.5526 32.2904C27.5526 32.7793 27.4033 33.1687 27.1044 33.4585C26.8056 33.7392 26.4253 33.8795 25.9635 33.8795C25.5289 33.8795 25.1577 33.7482 24.8498 33.4856C24.551 33.2231 24.4016 32.8246 24.4016 32.2904ZM42.1128 35.9983C42.7554 35.9983 43.2852 36.0436 43.7016 36.1341L43.3895 39.1086C42.9366 39 42.4658 38.9456 41.977 38.9456C40.6999 38.9456 39.6633 39.3621 38.8665 40.1951C38.0787 41.0282 37.6848 42.1104 37.6848 43.4414V51.2917H34.4931V36.2699H36.9922L37.4132 38.9185H37.5762C38.0742 38.022 38.7216 37.3112 39.5185 36.7861C40.3243 36.2609 41.1891 35.9983 42.1128 35.9983ZM56.5911 47.0134C56.5911 48.4802 56.0568 49.6076 54.9884 50.3955C53.9199 51.1739 52.3896 51.5633 50.3975 51.5633C48.3968 51.5633 46.7892 51.2602 45.5759 50.6532V47.8961C47.3418 48.711 48.985 49.1188 50.5063 49.1188C52.471 49.1188 53.4536 48.5256 53.4536 47.3394C53.4536 46.9589 53.3452 46.6419 53.1275 46.3887C52.9103 46.1351 52.5528 45.8725 52.0546 45.6009C51.5568 45.3293 50.8638 45.0212 49.9766 44.6772C48.2471 44.0072 47.0747 43.3371 46.4591 42.6671C45.852 41.9971 45.5489 41.1278 45.5489 40.0593C45.5489 38.7736 46.0651 37.7776 47.0972 37.0713C48.1387 36.356 49.5511 35.9983 51.3346 35.9983C53.1006 35.9983 54.7711 36.356 56.3464 37.0713L55.3144 39.4753C53.6937 38.8053 52.3307 38.4702 51.2262 38.4702C49.5421 38.4702 48.6999 38.9501 48.6999 39.91C48.6999 40.3808 48.9171 40.7792 49.3519 41.1052C49.7953 41.4313 50.7554 41.8792 52.2313 42.4499C53.4716 42.9297 54.3727 43.369 54.934 43.7671C55.4956 44.1655 55.912 44.6273 56.1836 45.1525C56.4552 45.6688 56.5911 46.2889 56.5911 47.0134ZM65.6505 48.9826C66.4289 48.9826 67.2078 48.8607 67.9862 48.6161V51.0201C67.6332 51.1739 67.1759 51.3007 66.6147 51.4005C66.0624 51.5089 65.4873 51.5633 64.8897 51.5633C61.8655 51.5633 60.3532 49.9696 60.3532 46.7826V38.6876H58.3026V37.275L60.5029 36.107L61.5894 32.9288H63.5586V36.2699H67.8369V38.6876H63.5586V46.7282C63.5586 47.4977 63.7488 48.0683 64.1292 48.4393C64.5186 48.8018 65.0255 48.9826 65.6505 48.9826ZM94.227 51.2917H90.9672V42.3411H81.8129V51.2917H78.567V31.4347H81.8129V39.5568H90.9672V31.4347H94.227V51.2917ZM108.515 51.2917L107.877 49.2002H107.768C107.044 50.1144 106.315 50.7395 105.582 51.0745C104.848 51.4005 103.907 51.5633 102.756 51.5633C101.28 51.5633 100.126 51.1649 99.2932 50.3681C98.4689 49.5712 98.057 48.4438 98.057 46.9864C98.057 45.4377 98.6322 44.2698 99.782 43.4819C100.932 42.6941 102.684 42.2642 105.038 42.1918L107.632 42.1104V41.309C107.632 40.3491 107.406 39.6338 106.953 39.1629C106.51 38.683 105.817 38.4431 104.875 38.4431C104.106 38.4431 103.368 38.5563 102.661 38.7826C101.955 39.009 101.276 39.2761 100.624 39.584L99.5918 37.3022C100.407 36.8766 101.299 36.5552 102.267 36.3379C103.237 36.1115 104.151 35.9983 105.011 35.9983C106.922 35.9983 108.361 36.4148 109.33 37.2479C110.308 38.0809 110.797 39.3893 110.797 41.1731V51.2917H108.515ZM103.762 49.1188C104.921 49.1188 105.849 48.7973 106.546 48.1542C107.252 47.5022 107.605 46.5924 107.605 45.4242V44.1205L105.677 44.2019C104.174 44.2563 103.078 44.5099 102.39 44.9623C101.711 45.4062 101.371 46.0897 101.371 47.0134C101.371 47.6834 101.57 48.2041 101.969 48.5751C102.367 48.9376 102.965 49.1188 103.762 49.1188ZM125.846 51.2917L125.398 49.3225H125.235C124.791 50.0195 124.157 50.5673 123.333 50.9657C122.518 51.3641 121.586 51.5633 120.535 51.5633C118.715 51.5633 117.357 51.1105 116.461 50.2052C115.564 49.2996 115.116 47.928 115.116 46.0897V36.2699H118.335V45.533C118.335 46.6828 118.571 47.5476 119.041 48.1272C119.512 48.6975 120.25 48.9826 121.255 48.9826C122.595 48.9826 123.578 48.5846 124.202 47.7877C124.837 46.9819 125.153 45.6369 125.153 43.7536V36.2699H128.359V51.2917H125.846ZM143 47.0134C143 48.4802 142.466 49.6076 141.397 50.3955C140.329 51.1739 138.799 51.5633 136.807 51.5633C134.806 51.5633 133.199 51.2602 131.985 50.6532V47.8961C133.751 48.711 135.394 49.1188 136.915 49.1188C138.88 49.1188 139.863 48.5256 139.863 47.3394C139.863 46.9589 139.754 46.6419 139.537 46.3887C139.319 46.1351 138.962 45.8725 138.464 45.6009C137.966 45.3293 137.273 45.0212 136.386 44.6772C134.656 44.0072 133.484 43.3371 132.868 42.6671C132.261 41.9971 131.958 41.1278 131.958 40.0593C131.958 38.7736 132.474 37.7776 133.506 37.0713C134.548 36.356 135.96 35.9983 137.744 35.9983C139.509 35.9983 141.18 36.356 142.756 37.0713L141.723 39.4753C140.103 38.8053 138.74 38.4702 137.635 38.4702C135.951 38.4702 135.109 38.9501 135.109 39.91C135.109 40.3808 135.326 40.7792 135.761 41.1052C136.205 41.4313 137.164 41.8792 138.64 42.4499C139.881 42.9297 140.782 43.369 141.343 43.7671C141.905 44.1655 142.321 44.6273 142.593 45.1525C142.864 45.6688 143 46.2889 143 47.0134Z" fill="#322123"/>
<path d="M2 24.7028L15.7035 16.5216V5.06795H25.3164V10.7948L38.8154 2.61359L61.7227 15.7035M61.7227 15.7035L47.6102 23.8847M61.7227 15.7035L72.1537 9.5676L81.9712 15.2944M81.9712 15.2944L96.6973 23.8847M81.9712 15.2944L104.879 2L119.4 10.5903V4.45436H128.399V15.2944L142.103 23.8847" stroke="#D64B58" stroke-width="3" stroke-linecap="round" stroke-linejoin="round"/>
</svg>
