<svg width="18" height="19" viewBox="0 0 18 19" fill="none" xmlns="http://www.w3.org/2000/svg">
<path d="M18 9.5C18 8.31809 17.7672 7.14782 17.3149 6.05579C16.8626 4.96396 16.1997 3.97168 15.364 3.13606C14.5283 2.30022 13.5361 1.6373 12.4441 1.18511C11.3522 0.73269 10.1819 0.5 9 0.5V2.3C9.94554 2.3 10.8818 2.48633 11.7553 2.848C12.6289 3.20989 13.4226 3.74031 14.0912 4.40893C14.7597 5.07735 15.2901 5.87122 15.6519 6.74463C16.0138 7.61826 16.2 8.55451 16.2 9.5H18Z" fill="#D64B58"/>
<path d="M0 7.7V3.2C0 2.70298 0.402951 2.3 0.9 2.3H5.4C5.89705 2.3 6.3 2.70298 6.3 3.2V6.8C6.3 7.29703 5.89705 7.7 5.4 7.7H3.6C3.6 11.6764 6.82356 14.9 10.8 14.9V13.1C10.8 12.603 11.2029 12.2 11.7 12.2H15.3C15.7971 12.2 16.2 12.603 16.2 13.1V17.6C16.2 18.097 15.7971 18.5 15.3 18.5H10.8C4.83533 18.5 0 13.6647 0 7.7Z" fill="#D64B58"/>
<path d="M13.989 7.43348C14.2603 8.0887 14.4 8.79095 14.4 9.50001H12.78C12.78 9.00365 12.6823 8.51211 12.4923 8.05354C12.3023 7.59476 12.0239 7.17816 11.6728 6.82725C11.3218 6.47613 10.9052 6.19773 10.4466 6.00767C9.98793 5.81783 9.49635 5.72005 9 5.72005V4.10001C9.70911 4.10001 10.4113 4.23975 11.0665 4.51112C11.7216 4.78248 12.317 5.18019 12.8183 5.68159C13.3198 6.18301 13.7176 6.77825 13.989 7.43348Z" fill="#D64B58"/>
</svg>
